<svg version="1.1" width="191" height="155" viewBox="-1 -1 191 155" xmlns="http://www.w3.org/2000/svg" xmlns:xlink="http://www.w3.org/1999/xlink">
  <!-- Exported by Scratch - http://scratch.mit.edu/ -->
  <path id="ID0.15756249940022826" fill="none" stroke="#000000" stroke-width="2" stroke-linecap="round" d="M 172.500 184.500 L 176 171 L 182.500 163 L 186 161 L 193 158 " transform="matrix(1, 0, 0, 1, -165.5, -53.75)"/>
  <path id="ID0.6009042575024068" fill="none" stroke="#000000" stroke-width="2" stroke-linecap="round" d="M 194.500 157 L 236 144.500 L 243 138 L 246.500 133 L 257.500 96.500 L 261 91 L 265.500 86 L 270 83.500 L 277.500 82 L 282.500 80.500 L 312.500 70 " transform="matrix(1, 0, 0, 1, -166, -53)"/>
  <path id="ID0.9298903252929449" fill="#B2B2B2" stroke="#000000" stroke-width="2" d="M 334 54.500 L 355 54.500 L 355 70.500 L 334 70.500 L 334 54.500 Z " transform="matrix(0.9893411993980408, -0.1456160545349121, 0.1456160545349121, 0.9893411993980408, -173.4, -0.75)"/>
  <path id="ID0.5814490811899304" fill="#000000" stroke="#000000" stroke-width="2" d="M 311.500 62.500 L 360.500 62.500 L 360.500 80.500 L 311.500 80.500 L 311.500 62.500 Z " transform="matrix(0.504906177520752, -0.07388870418071747, 0.1635761260986328, 1.1177701950073242, -22.9, -41.5)"/>
  <path id="ID0.4137796866707504" fill="#000000" stroke="#000000" stroke-width="2" d="M 293.250 12.250 L 299 12.250 L 299 18.500 L 293.250 18.500 L 293.250 12.250 Z " transform="matrix(0.4499770402908325, -0.06428243964910507, 0.06428243964910507, 0.4499770402908325, 47.4, 18.25)"/>
  <path id="ID0.4137796866707504" fill="#000000" stroke="#000000" stroke-width="2" d="M 293.250 12.250 L 299 12.250 L 299 18.500 L 293.250 18.500 L 293.250 12.250 Z " transform="matrix(0.4499770402908325, -0.06428243964910507, 0.06428243964910507, 0.4499770402908325, 48.65, 25.75)"/>
  <path id="ID0.10909977229312062" fill="#CCCCCC" stroke="none" d="M 167.500 199 L 174.750 199 L 174.750 207 L 167.500 207 L 167.500 199 Z " transform="matrix(-0.9953259825706482, -0.09657252579927444, 0.09657252579927444, -0.9953259825706482, 155.55, 368.5)"/>
  <path id="ID0.5219486802816391" fill="#000000" stroke="none" stroke-linecap="round" d="M 172.250 181.500 L 173.800 180.550 L 177.750 189.750 L 177.500 200.500 L 167.250 200.500 L 167.750 190.500 L 172.250 181.500 Z " transform="matrix(0.9974586963653564, 0.07124704867601395, -0.07124704867601395, 0.9974586963653564, -152.35, -64.75)"/>
</svg>