<?xml version="1.0" encoding="UTF-8" standalone="no"?>
<!-- Created with Inkscape (http://www.inkscape.org/) -->

<svg
   xmlns:dc="http://purl.org/dc/elements/1.1/"
   xmlns:cc="http://creativecommons.org/ns#"
   xmlns:rdf="http://www.w3.org/1999/02/22-rdf-syntax-ns#"
   xmlns:svg="http://www.w3.org/2000/svg"
   xmlns="http://www.w3.org/2000/svg"
   xmlns:xlink="http://www.w3.org/1999/xlink"
   xmlns:sodipodi="http://sodipodi.sourceforge.net/DTD/sodipodi-0.dtd"
   xmlns:inkscape="http://www.inkscape.org/namespaces/inkscape"
   width="164.75615mm"
   height="280.17548mm"
   viewBox="0 0 583.78163 992.74775"
   id="svg2"
   version="1.1"
   inkscape:version="0.92.3 (2405546, 2018-03-11)"
   sodipodi:docname="black-android-phone-flat-clean-nomiddle.svg">
  <defs
     id="defs4">
    <linearGradient
       inkscape:collect="always"
       id="linearGradient6331">
      <stop
         style="stop-color:#ececec;stop-opacity:1;"
         offset="0"
         id="stop6333" />
      <stop
         style="stop-color:#ececec;stop-opacity:0;"
         offset="1"
         id="stop6335" />
    </linearGradient>
    <filter
       inkscape:collect="always"
       style="color-interpolation-filters:sRGB"
       id="filter6281"
       x="-0.010001849"
       width="1.0200037"
       y="-0.089850523"
       height="1.1797011">
      <feGaussianBlur
         inkscape:collect="always"
         stdDeviation="0.38774777"
         id="feGaussianBlur6283" />
    </filter>
    <linearGradient
       inkscape:collect="always"
       xlink:href="#linearGradient6331"
       id="linearGradient6337"
       x1="-296.98401"
       y1="534.4256"
       x2="-295.93579"
       y2="947.07294"
       gradientUnits="userSpaceOnUse"
       gradientTransform="matrix(1,0,0,0.8980104,0,96.866219)" />
    <filter
       inkscape:collect="always"
       style="color-interpolation-filters:sRGB"
       id="filter6363"
       x="-0.072919145"
       width="1.1458383"
       y="-0.035774533"
       height="1.0715491">
      <feGaussianBlur
         inkscape:collect="always"
         stdDeviation="14.424978"
         id="feGaussianBlur6365" />
    </filter>
  </defs>
  <sodipodi:namedview
     id="base"
     pagecolor="#ffffff"
     bordercolor="#666666"
     borderopacity="1.0"
     inkscape:pageopacity="0.0"
     inkscape:pageshadow="2"
     inkscape:zoom="0.49497475"
     inkscape:cx="303.52736"
     inkscape:cy="427.06748"
     inkscape:document-units="px"
     inkscape:current-layer="layer1"
     showgrid="false"
     inkscape:window-width="1920"
     inkscape:window-height="1011"
     inkscape:window-x="1920"
     inkscape:window-y="0"
     inkscape:window-maximized="1"
     fit-margin-top="0"
     fit-margin-left="0"
     fit-margin-right="0"
     fit-margin-bottom="0" />
  <metadata
     id="metadata7">
    <rdf:RDF>
      <cc:Work
         rdf:about="">
        <dc:format>image/svg+xml</dc:format>
        <dc:type
           rdf:resource="http://purl.org/dc/dcmitype/StillImage" />
        <dc:title></dc:title>
      </cc:Work>
    </rdf:RDF>
  </metadata>
  <g
     inkscape:label="Layer 1"
     inkscape:groupmode="layer"
     id="layer1"
     transform="translate(-83.388989,-12.471498)">
    <g
       id="g1650"
       transform="translate(3.3433723e-4,-3.597506e-5)">
      <path
         id="path6339"
         transform="matrix(0.93750003,0,0,0.93750003,83.388989,12.471498)"
         d="M 121.94531,32.978516 C 96.060936,40.014523 77.533018,52.793107 75.806641,78.685547 L 75.263672,898.5293 c 0.09382,25.69885 10.39055,46.87442 47.222658,56.29101 l 413.61328,-0.48047 c 29.36776,-6.09569 48.72679,-21.39096 48.85156,-54.36718 l 0.54297,-818.400394 c -3.43717,-20.228518 -8.9313,-39.682723 -45.05078,-47.63086 z m 431.19922,46.298828 a 3.2597348,3.2597348 0 0 1 3.26758,3.257812 l 0.57227,825.240234 a 3.2597348,3.2597348 0 0 1 -3.26368,3.26172 l -459.511716,-0.5625 a 3.2597348,3.2597348 0 0 1 -3.255859,-3.26367 L 91.519531,83.662109 a 3.2597348,3.2597348 0 0 1 3.251953,-3.257812 z"
         style="opacity:0.45;fill:#000000;fill-opacity:1;fill-rule:evenodd;stroke:none;stroke-width:1.01179624px;stroke-linecap:butt;stroke-linejoin:miter;stroke-opacity:1;filter:url(#filter6363)"
         inkscape:connector-curvature="0" />
      <path
         d="M 325.8256,41.199506 V 1005.2193 H 127.8357 C 103.86591,998.28897 85.273919,984.18823 83.388989,947.81142 L 83.894069,93.222362 C 85.624539,66.668295 97.192689,47.246545 125.8154,40.189354 Z m -0.0514,0 V 1005.2193 h 197.9899 c 23.96979,-6.93033 42.56178,-21.03107 44.44671,-57.40788 L 567.70573,93.222362 C 565.97526,66.668295 554.40711,47.246545 525.7844,40.189354 Z"
         style="fill:none;fill-rule:evenodd;stroke:none;stroke-width:1px;stroke-linecap:butt;stroke-linejoin:miter;stroke-opacity:1"
         id="path4174"
         inkscape:connector-curvature="0" />
      <path
         style="fill:#151515;fill-opacity:1;fill-rule:evenodd;stroke:none;stroke-width:0.94503081px;stroke-linecap:butt;stroke-linejoin:miter;stroke-opacity:1"
         d="m 193.16072,44.551577 c -24.08553,6.596503 -41.32445,18.577091 -42.93091,42.852174 l -0.50537,768.631009 c 0.0873,24.09353 9.66924,43.94803 43.94166,52.77649 l 384.86756,-0.45045 c 27.3268,-5.71493 45.33981,-20.05651 45.45593,-50.97289 L 624.49497,90.11005 C 621.29665,71.1451 616.18415,52.905942 582.57479,45.454287 Z m 395.23134,66.864633 a 2.8630065,2.8630065 0 0 1 2.87109,2.86193 l 0.50354,724.80288 a 2.8630065,2.8630065 0 0 1 -2.86743,2.8656 l -403.58644,-0.49439 a 2.8630065,2.8630065 0 0 1 -2.86011,-2.8656 l 0.49805,-723.31789 a 2.8630065,2.8630065 0 0 1 2.85644,-2.86193 z"
         id="path4192"
         inkscape:connector-curvature="0" />
      <path
         transform="matrix(1.0039824,0,0,1.1459209,671.84342,-16.338935)"
         style="opacity:1;fill:#000000;stroke:none;stroke-width:0.25;filter:url(#filter6281)"
         d="m -328.07144,77.933632 h 87.32142 c 3.15793,3.241852 3.96558,6.640389 0,10.357142 h -87.32142 c -2.38775,-2.890557 -5.44306,-5.624041 0,-10.357142 z"
         id="path6255"
         inkscape:connector-curvature="0"
         sodipodi:nodetypes="ccccc" />
      <ellipse
         ry="7.9549513"
         rx="8.207489"
         cy="77.836426"
         cx="532.31915"
         id="path4223"
         style="opacity:1;fill:#000000;fill-opacity:1;stroke:none;stroke-width:0.25" />
      <path
         sodipodi:nodetypes="ccccc"
         inkscape:connector-curvature="0"
         id="path1094"
         d="m -328.07144,77.933632 h 87.32142 c 3.15793,3.241852 3.96558,6.640389 0,10.357142 h -87.32142 c -2.38775,-2.890557 -5.44306,-5.624041 0,-10.357142 z"
         style="opacity:1;fill:#000000;stroke:none;stroke-width:0.25;filter:url(#filter6281)"
         transform="matrix(1.0039824,0,0,1.1459209,671.84342,778.7631)" />
    </g>
  </g>
</svg>
