<?xml version="1.0" encoding="utf-8"?>

<!DOCTYPE svg PUBLIC "-//W3C//DTD SVG 1.1//EN" "http://www.w3.org/Graphics/SVG/1.1/DTD/svg11.dtd">
<svg version="1.1" id="Layer_1" xmlns="http://www.w3.org/2000/svg" xmlns:xlink="http://www.w3.org/1999/xlink" x="0px" y="0px"
	 viewBox="251.344 34.688 2139.543 1600.452" enable-background="new 251.344 34.688 2139.543 1600.452" xml:space="preserve">
<g>
	<path fill="#010A06" stroke="#010A06" stroke-width="0.5" d="M678.46,97.239c19.324-6.012,39.46-9.437,59.689-10.035
		c24.732-0.235,49.47-0.015,74.202-0.107c51.499,0.01,102.999,0.02,154.503-0.005c36.741,0.041,73.482,0.005,110.222,0.015
		c39.368-0.005,78.737-0.01,118.105,0.005c32.723-0.015,65.45,0.015,98.173-0.015c36.802,0.01,73.599,0.02,110.401-0.005
		c6.359,0.061,12.724-0.107,19.078,0.245c26.455,1.186,52.67,7.193,77.05,17.529c34.752,14.672,65.599,38.065,89.932,66.82
		c24.906,29.492,42.983,64.571,53.12,101.787c3.854,14.656,6.682,29.594,8.144,44.685c1.212,12.065,1.503,24.196,1.416,36.306
		c0.026,14.713-0.051,29.425,0.036,44.138c-0.036,39.68-0.046,79.36,0.01,119.036c-0.164,11.252,0.097,22.504-0.138,33.755
		c-0.787-0.695-1.554-1.396-2.316-2.086c0.342-12.458,0.102-24.927,0.133-37.39c-0.01-55.38,0.026-110.759,0.031-166.144
		c0.021-41.178-9.273-82.387-27.442-119.373c-17.54-35.872-43.407-67.776-75.45-91.686c-22.999-17.126-49.122-30.156-76.825-37.666
		c-18.404-5.046-37.467-7.545-56.535-7.842c-223.911,0.026-447.821-0.015-671.732,0.02c-22.509,0.506-45.028,4.008-66.391,11.206
		c-32.171,10.526-61.739,28.536-86.369,51.704c-27.769,25.934-49.393,58.314-63.283,93.659
		c-12.652,31.884-18.899,66.212-18.935,100.489c0.005,333.484,0,666.963,0.005,1000.441c-0.051,12.857-0.138,25.734,1.109,38.545
		c4.892,57.532,28.653,113.56,67.838,156.114c2.74,2.709,5.173,5.71,7.934,8.409c12.883,12.55,26.936,23.96,42.236,33.448
		c7.612,4.908,15.704,9.002,23.828,12.985c28.643,13.69,60.297,20.949,92.028,21.409c221.866,0.046,443.732,0,665.603,0.021
		c23.051,0.312,46.214-2.663,68.283-9.417c35.151-10.546,67.536-29.906,93.92-55.354c26.716-25.484,47.517-56.98,61.085-91.277
		c12.821-32.217,19.242-66.928,19.099-101.593c-0.031-52.997-0.01-105.99-0.01-158.987c0.026-52.041-0.061-104.083,0.066-156.119
		c0.394,1.161,1.109,2.183,2.111,2.924c0.148,9.611-0.041,19.227,0.097,28.843c-0.204,78.088,0.015,156.175-0.051,234.263
		c0.01,4.11-0.056,8.225,0.087,12.341c-0.005,0.215-0.01,0.649-0.01,0.864c-0.174,13.69,0.087,27.391-0.133,41.086
		c-0.475,35.146-7.724,70.189-21.343,102.595c-15.096,35.769-38.09,68.252-67.255,93.915
		c-30.632,26.946-68.237,46.127-108.351,53.923c-10.633,2.029-21.404,3.405-32.222,3.906c-11.932,0.516-23.879,0.184-35.821,0.276
		c-11.078,0-22.156,0-33.229,0c-40.079-0.026-80.153,0.015-120.227-0.021c-34.563,0.046-69.131,0.021-103.694,0.01
		c-45.15,0.005-90.3,0-135.451,0.005c-40.007,0.021-80.015,0-120.022,0.01c-42.303-0.031-84.606-0.01-126.903-0.01
		c-18.214,0.138-36.47-1.769-54.194-6.017c-39.931-9.324-76.866-30.049-106.613-58.155c-26.45-25.106-47.405-55.901-61.284-89.61
		c-8.118-19.605-13.869-40.171-17.218-61.12c-2.019-12.826-3.18-25.791-3.384-38.77c-0.02-31.036,0.031-62.071-0.026-93.102
		c0.026-51.811,0.026-103.623,0-155.434c0.041-36.623,0.041-73.246,0-109.87c0.026-42.937,0.031-85.868-0.005-128.8
		c0.051-34.399,0.036-68.804,0.01-103.203c0.01-42.932,0.036-85.868-0.01-128.8c0.051-36.623,0.041-73.246,0.005-109.87
		c0.036-63.774,0.005-127.547,0.015-191.321c-0.128-12.929,0.925-25.837,2.597-38.653c5.603-39.829,20.019-78.425,42.308-111.94
		c8.9-13.21,18.889-25.709,30.064-37.068C607.324,130.238,641.259,108.854,678.46,97.239z"/>
	<path fill="#232227" stroke="#232227" stroke-width="0.5" d="M675.878,100.434c21.364-7.198,43.882-10.7,66.391-11.206
		c223.911-0.036,447.821,0.005,671.732-0.02c19.068,0.297,38.131,2.796,56.535,7.842c27.703,7.51,53.825,20.54,76.825,37.666
		c32.043,23.909,57.91,55.814,75.45,91.686c18.168,36.986,27.462,78.195,27.442,119.373c-0.005,55.385-0.041,110.764-0.031,166.144
		c-0.031,12.463,0.209,24.932-0.133,37.39c-13.107-11.395-26.496-22.585-41.199-31.879c-7.556-4.683-15.49-9.13-24.242-11.073
		c-4.821-1.012-10.429-0.992-14.406,2.311c-2.413,1.83-3.665,4.637-5.035,7.239c-13.808,21.742-23.046,46.597-25.392,72.321
		c-0.118-96.665-0.021-193.33-0.051-289.995c-0.051-7.658,0.184-15.336-0.404-22.979c-1.298-16.282-6.728-32.191-15.561-45.922
		c-14.35-22.498-37.988-38.878-64.172-44.169c-8.936-1.953-18.107-2.249-27.217-2.076c-244.702,0-489.403,0-734.1,0
		c-8.103-0.072-16.251-0.102-24.252,1.324c-19.768,3.205-38.469,12.576-52.916,26.435c-13.348,12.663-23.117,29.067-27.815,46.863
		c-2.249,8.369-3.318,17.039-3.394,25.699c0,345.748,0,691.501,0,1037.248c0.174,11.221-0.603,22.524,1.109,33.668
		c2.571,17.616,9.994,34.481,21.205,48.309c11.564,14.375,27.171,25.469,44.567,31.629c10.02,3.568,20.617,5.516,31.25,5.756
		c250.161,0.01,500.318-0.005,750.474,0.005c20.944,0.255,41.868-6.395,58.897-18.578c20.965-14.84,35.887-37.968,40.529-63.252
		c2.239-11.18,1.738-22.626,1.8-33.96c0-223.062,0-446.119,0-669.176c0.061-16.737-0.128-33.474,0.102-50.206
		c1.007,17.928,7.091,35.478,17.187,50.308c5.051,7.566,11.293,14.212,17.391,20.924c12.187,13.215,25.049,25.883,39.256,36.93
		c7.034,5.414,14.406,10.449,22.371,14.406c4.478,2.157,9.141,4.115,14.104,4.78c0.123,93.056,0.01,186.117,0.046,279.173
		c0.077,11.18-0.179,22.36,0.092,33.541c-0.128,52.036-0.041,104.078-0.066,156.119c0,52.997-0.02,105.99,0.01,158.987
		c0.143,34.665-6.278,69.376-19.099,101.593c-13.568,34.297-34.369,65.793-61.085,91.277c-26.384,25.448-58.769,44.808-93.92,55.354
		c-22.069,6.753-45.232,9.728-68.283,9.417c-221.871-0.021-443.737,0.026-665.603-0.021c-31.731-0.46-63.385-7.719-92.028-21.409
		c-8.123-3.982-16.216-8.077-23.828-12.985c-15.301-9.488-29.354-20.898-42.236-33.448c-2.761-2.699-5.194-5.7-7.934-8.409
		c-39.184-42.553-62.945-98.582-67.838-156.114c-1.247-12.811-1.16-25.688-1.109-38.545c-0.005-333.479,0-666.957-0.005-1000.441
		c0.036-34.277,6.283-68.605,18.935-100.489c13.89-35.345,35.514-67.725,63.283-93.659
		C614.139,128.97,643.707,110.96,675.878,100.434 M963.261,1472.582c-0.118,1.314-0.107,2.643-0.092,3.988
		c-0.015,28.459,0,56.918-0.01,85.377c0.031,2.464-0.21,4.959,0.215,7.418c1.938,0.332,3.916,0.179,5.879,0.199
		c28.117,0.005,56.233-0.005,84.35,0.005c26.384-0.056,52.772,0.092,79.156-0.077c0.383-3.359,0.082-6.738,0.169-10.101
		c0-23.173,0-46.346,0-69.525c-0.102-5.772,0.204-11.553-0.138-17.31c-8.149-0.373-16.328-0.056-24.487-0.159
		c-42.942,0-85.883,0-128.825,0C974.073,1472.516,968.649,1472.148,963.261,1472.582z"/>
	<path fill="#FFFFFF" stroke="#FFFFFF" stroke-width="0.5" d="M674.058,184.411c8-1.426,16.149-1.396,24.252-1.324
		c244.697,0,489.398,0,734.1,0c9.11-0.174,18.281,0.123,27.217,2.076c26.184,5.291,49.823,21.67,64.172,44.169
		c8.834,13.731,14.263,29.64,15.561,45.922c0.588,7.643,0.353,15.321,0.404,22.979c0.031,96.665-0.066,193.33,0.051,289.995
		c-0.189,5.536-0.353,11.088,0.051,16.625c-0.23,16.732-0.041,33.469-0.102,50.206c0,223.057,0,446.114,0,669.176
		c-0.061,11.334,0.44,22.78-1.8,33.96c-4.642,25.284-19.564,48.412-40.529,63.252c-17.029,12.182-37.952,18.833-58.897,18.578
		c-250.156-0.01-500.313,0.005-750.474-0.005c-10.633-0.24-21.231-2.188-31.25-5.756c-17.397-6.16-33.004-17.253-44.567-31.629
		c-11.211-13.828-18.634-30.693-21.205-48.309c-1.713-11.145-0.936-22.447-1.109-33.668c0-345.748,0-691.501,0-1037.249
		c0.077-8.66,1.145-17.33,3.394-25.699c4.698-17.795,14.467-34.2,27.815-46.863C635.589,196.987,654.289,187.616,674.058,184.411
		 M986.843,437.542c-25.739,3.348-51.264,8.363-76.324,15.117c-79.228,21.22-153.737,59.612-217.255,111.475
		c-6.206,5.173-12.545,10.229-18.404,15.791c2.306,3.221,5.219,5.981,7.75,9.033c14.324,16.175,28.659,32.344,42.962,48.539
		c0.404,0.414,0.792,0.9,1.355,1.14c12.714-11.042,25.786-21.706,39.476-31.532c32.672-23.644,68.18-43.376,105.534-58.575
		c42.277-17.223,86.911-28.664,132.276-33.806c24.722-2.893,49.654-3.722,74.53-3.011c47.665,1.554,95.136,9.856,140.445,24.778
		c78.553,25.663,150.419,71.207,207.542,130.88c6.048,6.135,11.661,12.678,17.499,19.007c1.339-0.649,2.341-1.799,3.481-2.74
		c15.347-13.276,30.678-26.573,46.045-39.834c3.21-2.955,6.753-5.557,9.795-8.691c-2.275-3.154-5.076-5.889-7.612-8.829
		c-33.019-36.608-70.614-69.095-111.7-96.348c-54.321-36.127-114.757-63.048-177.978-79.161
		c-47.814-12.131-97.176-18.404-146.523-17.887C1035.367,432.706,1011.008,434.47,986.843,437.542 M873.967,633.878
		c-34.261,16.885-66.299,38.346-94.809,63.758c0.639,1.406,1.851,2.428,2.837,3.589c15.071,16.967,30.075,33.99,45.135,50.963
		c1.309,1.447,2.464,3.062,4.039,4.253c3.103-2.408,5.951-5.128,9.018-7.576c47.502-39.46,105.683-65.997,166.701-75.634
		c26.731-4.31,53.958-5.296,80.956-3.4c40.232,2.939,79.928,13,116.694,29.604c46.122,20.745,87.53,51.755,120.656,89.943
		c2.418-1.503,4.35-3.645,6.574-5.414c16.451-14.227,32.881-28.469,49.337-42.691c1.166-1.084,2.566-1.968,3.451-3.323
		c-2.561-3.297-5.475-6.293-8.266-9.391c-46.214-50.359-104.589-89.549-168.874-112.84c-41.101-14.994-84.554-23.475-128.258-25.213
		c-13.634-0.271-27.288-0.404-40.907,0.317C981.337,593.917,925.068,608.624,873.967,633.878 M982.748,759.57
		c-36.567,11.339-70.685,30.611-99.236,56.121c2.137,2.847,4.693,5.363,6.988,8.087c13.931,15.725,27.851,31.455,41.771,47.185
		c1.058,1.109,1.907,2.484,3.236,3.313c2.372-1.646,4.361-3.778,6.697-5.485c22.785-18.506,49.894-31.675,78.568-37.988
		c37.303-8.215,77.121-5.102,112.518,9.355c26.246,10.557,49.991,27.145,69.131,47.962c1.334,1.38,2.449,3.006,4.013,4.161
		c6.288-5.107,12.284-10.587,18.455-15.837c9.58-8.312,19.211-16.568,28.766-24.906c3.916-3.512,8.118-6.722,11.85-10.419
		c-1.891-2.745-4.35-5.02-6.533-7.51c-17.852-19.124-38.443-35.688-60.988-48.959c-27.294-16.103-57.47-27.289-88.664-32.866
		C1067.308,744.31,1023.517,746.887,982.748,759.57 M1074.275,922.278c-18.312,2.04-35.984,9.457-50.13,21.287
		c-12.76,10.577-22.698,24.554-28.367,40.135c-5.899,15.97-7.29,33.551-4.131,50.272c2.648,14.099,8.573,27.57,17.197,39.031
		c7.361,9.805,16.635,18.184,27.156,24.482c17.248,10.408,37.886,14.927,57.91,12.898c17.719-1.651,34.88-8.573,48.867-19.559
		c13.839-10.776,24.569-25.499,30.581-41.981c7.832-21.318,7.637-45.467-0.614-66.631c-8.425-22.043-25.504-40.611-46.74-50.891
		C1110.076,923.48,1091.912,920.433,1074.275,922.278z"/>
	<path fill="#30BBDA" stroke="#30BBDA" stroke-width="0.5" d="M986.843,437.542c24.165-3.072,48.524-4.836,72.894-4.652
		c49.347-0.516,98.71,5.756,146.523,17.887c63.222,16.113,123.657,43.034,177.978,79.161c41.086,27.253,78.681,59.74,111.7,96.348
		c2.536,2.939,5.337,5.674,7.612,8.829c-3.042,3.134-6.584,5.736-9.795,8.691c-15.367,13.261-30.698,26.557-46.045,39.834
		c-1.14,0.941-2.142,2.091-3.481,2.74c-5.838-6.329-11.451-12.872-17.499-19.007c-57.123-59.674-128.989-105.218-207.542-130.88
		c-45.309-14.922-92.78-23.224-140.445-24.778c-24.875-0.711-49.807,0.118-74.53,3.011c-45.365,5.143-89.999,16.584-132.276,33.806
		c-37.354,15.198-72.863,34.931-105.534,58.575c-13.69,9.825-26.762,20.489-39.476,31.532c-0.562-0.24-0.951-0.726-1.355-1.14
		c-14.304-16.195-28.638-32.365-42.962-48.539c-2.531-3.052-5.444-5.813-7.75-9.033c5.859-5.562,12.198-10.618,18.404-15.791
		c63.518-51.862,138.027-90.254,217.255-111.475C935.579,445.906,961.103,440.891,986.843,437.542z"/>
	<path fill="#E4BE99" stroke="#E4BE99" stroke-width="0.5" d="M1570.243,508.667c3.977-3.302,9.585-3.323,14.406-2.311
		c8.752,1.943,16.686,6.39,24.242,11.073c14.702,9.294,28.091,20.484,41.199,31.879c0.762,0.69,1.528,1.39,2.316,2.086
		c3.103,2.566,5.741,5.628,8.808,8.236c2.929,2.203,5.47,4.857,8.149,7.356c18.705,17.724,36.623,36.255,54.362,54.94
		c5.726,6.191,11.318,12.509,17.187,18.572c6.385,7.259,12.959,14.35,19.39,21.573c19.16,21.599,38.034,43.443,56.52,65.624
		c1.099,1.426,2.301,2.776,3.446,4.187c1.401,1.677,1.697,3.921,2.188,5.986c3.778,16.732,7.873,33.392,11.615,50.135
		c6.426,26.926,12.555,53.923,18.946,80.858c5.536,24.134,11.277,48.228,16.829,72.362c2.883,12.065,5.623,24.16,8.496,36.224
		c0.588,2.316,0.854,4.724,1.764,6.958c3.957,1.718,8.215,2.628,12.274,4.095c6.083,1.907,12.126,3.957,18.245,5.761
		c1.171,0.337,2.541,0.731,2.914,2.081c-2.249,3.348-3.522,7.208-5.276,10.812c-54.168,119.48-108.382,238.94-162.56,358.416
		c-1.396,2.817-2.413,5.833-4.039,8.537c-0.71-0.22-1.36-0.562-1.948-0.941c-3.083-2.571-6.416-4.81-9.672-7.136
		c-17.008-12.126-34.001-24.277-50.993-36.419c-8.317-5.884-16.512-11.937-24.922-17.683c-0.71-4.56-0.143-9.192-0.501-13.772
		c-0.061-19.774-0.051-39.547-0.066-59.316c-0.603-12.77,0.066-25.556-0.435-38.32c0.164-7.162-0.383-14.314-0.235-21.471
		c-0.112-12.1-0.031-24.196-0.087-36.296c-0.307-13.123,0.148-26.246-0.113-39.363c-0.077-8.905,0.215-17.816-0.169-26.711
		c-0.138-9.616,0.051-19.232-0.097-28.843c-0.051-26.808-0.143-53.621-0.194-80.429c0.026-15.341-0.225-30.678-0.123-46.014
		c-0.337-12.949,0.077-25.903-0.266-38.847c0.046-29.139-0.286-58.273-0.24-87.412c-0.256-11.584-0.082-23.173-0.148-34.762
		c-0.342-9.319,0.118-18.659-0.245-27.968c-0.256-0.051-0.772-0.153-1.033-0.204c-4.964-0.665-9.626-2.622-14.104-4.78
		c-7.965-3.957-15.336-8.992-22.371-14.406c-14.207-11.047-27.069-23.715-39.256-36.93c-6.099-6.712-12.341-13.358-17.391-20.924
		c-10.096-14.83-16.18-32.38-17.187-50.308c-0.404-5.536-0.24-11.088-0.051-16.625c2.346-25.724,11.584-50.579,25.392-72.321
		C1566.577,513.304,1567.83,510.497,1570.243,508.667z"/>
	<path fill="#30BBDA" stroke="#30BBDA" stroke-width="0.5" d="M873.967,633.878c51.101-25.254,107.37-39.961,164.283-43.054
		c13.619-0.721,27.273-0.588,40.907-0.317c43.703,1.738,87.156,10.219,128.258,25.213c64.285,23.291,122.66,62.48,168.874,112.84
		c2.791,3.098,5.705,6.094,8.266,9.391c-0.884,1.355-2.285,2.239-3.451,3.323c-16.456,14.222-32.886,28.464-49.337,42.691
		c-2.224,1.769-4.156,3.911-6.574,5.414c-33.126-38.188-74.535-69.198-120.656-89.943c-36.766-16.604-76.462-26.665-116.694-29.604
		c-26.997-1.897-54.224-0.91-80.955,3.4c-61.018,9.636-119.199,36.173-166.701,75.634c-3.067,2.449-5.915,5.168-9.018,7.576
		c-1.575-1.191-2.73-2.807-4.039-4.253c-15.06-16.972-30.064-33.996-45.135-50.963c-0.987-1.16-2.198-2.183-2.837-3.589
		C807.668,672.224,839.706,650.764,873.967,633.878z"/>
	<path fill="#060807" stroke="#060807" stroke-width="0.5" d="M1650.176,732.2c0.261,0.051,0.777,0.153,1.033,0.204
		c0.363,9.309-0.097,18.649,0.245,27.968c0.066,11.589-0.107,23.178,0.148,34.762c-0.046,29.139,0.286,58.273,0.24,87.412
		c0.342,12.944-0.072,25.898,0.266,38.847c-0.102,15.336,0.148,30.673,0.123,46.014c0.051,26.808,0.143,53.621,0.194,80.429
		c-1.002-0.741-1.718-1.764-2.111-2.924c-0.271-11.18-0.015-22.36-0.092-33.541C1650.186,918.316,1650.298,825.255,1650.176,732.2z"
		/>
	<path fill="#30BBDA" stroke="#30BBDA" stroke-width="0.5" d="M982.748,759.57c40.769-12.683,84.56-15.26,126.571-7.786
		c31.194,5.577,61.371,16.763,88.664,32.866c22.544,13.271,43.136,29.834,60.988,48.959c2.183,2.49,4.642,4.764,6.533,7.51
		c-3.732,3.696-7.934,6.906-11.85,10.419c-9.555,8.338-19.186,16.594-28.766,24.906c-6.17,5.25-12.167,10.73-18.455,15.837
		c-1.564-1.155-2.679-2.781-4.013-4.161c-19.14-20.817-42.885-37.405-69.131-47.962c-35.396-14.457-75.215-17.57-112.518-9.355
		c-28.674,6.313-55.783,19.482-78.568,37.988c-2.336,1.707-4.325,3.839-6.697,5.485c-1.329-0.828-2.178-2.203-3.236-3.313
		c-13.92-15.73-27.841-31.46-41.771-47.185c-2.295-2.725-4.851-5.24-6.988-8.087C912.063,790.181,946.181,770.909,982.748,759.57z"
		/>
	<path fill="#30BBDA" stroke="#30BBDA" stroke-width="0.5" d="M1074.275,922.278c17.637-1.845,35.8,1.201,51.729,9.043
		c21.236,10.28,38.315,28.848,46.74,50.891c8.251,21.164,8.445,45.314,0.614,66.631c-6.012,16.481-16.742,31.204-30.581,41.981
		c-13.987,10.986-31.148,17.908-48.867,19.559c-20.024,2.029-40.662-2.49-57.91-12.898c-10.521-6.298-19.794-14.677-27.156-24.482
		c-8.624-11.461-14.549-24.932-17.197-39.031c-3.159-16.722-1.769-34.302,4.131-50.273c5.669-15.582,15.607-29.558,28.367-40.135
		C1038.291,931.736,1055.964,924.318,1074.275,922.278z"/>
	<path fill="#FBFDFC" stroke="#FBFDFC" stroke-width="0.5" d="M1908.261,1007.155c1.753-3.604,3.026-7.464,5.276-10.812
		c2.602,1.171,5.383,1.886,8.103,2.766c19.809,6.334,39.655,12.54,59.433,18.971c-52.435,118.826-104.942,237.621-157.407,356.432
		c-3.722,8.481-7.443,16.967-11.477,25.31c-2.275,3.492-3.911,7.336-5.874,11.006c-2.5,5.015-5.25,9.917-7.525,15.05
		c-0.373,0.429-0.716,0.89-1.048,1.36c-4.182-1.099-8.149-2.898-12.264-4.197c-17.381-6.14-34.757-12.274-52.138-18.398
		c-2.234-0.859-4.616-1.38-6.661-2.643c4.156-9.687,8.655-19.242,13.036-28.832c0.588,0.378,1.237,0.721,1.948,0.941
		c1.626-2.704,2.643-5.72,4.039-8.537C1799.879,1246.095,1854.093,1126.635,1908.261,1007.155z"/>
	<path fill="#74AC7F" stroke="#74AC7F" stroke-width="0.5" d="M1652.522,1076.68c0.383,8.895,0.092,17.806,0.169,26.711
		c0.261,13.118-0.194,26.241,0.113,39.363c0.056,12.1-0.026,24.196,0.087,36.296c-0.148,7.157,0.399,14.309,0.235,21.471
		c0.501,12.765-0.169,25.55,0.435,38.32c0.015,19.768,0.005,39.542,0.066,59.316c0.358,4.58-0.209,9.212,0.501,13.772
		c-0.435-0.092-0.854-0.159-1.252-0.204c-0.215,3.844,0.143,7.714-0.317,11.559c-0.143-4.115-0.077-8.231-0.087-12.341
		C1652.538,1232.855,1652.318,1154.767,1652.522,1076.68z"/>
	<path fill="#5CB586" stroke="#5CB586" stroke-width="0.5" d="M1806.315,1410.828c1.963-3.67,3.599-7.515,5.874-11.006
		c-1.084,3.497-2.781,6.758-4.182,10.137c-2.387,5.311-4.683,10.664-7.065,15.98c-0.22-0.424-0.419-0.838-0.593-1.232
		c-0.537,0.368-1.089,0.721-1.559,1.171C1801.065,1420.745,1803.815,1415.843,1806.315,1410.828z"/>
	<path fill="#030708" stroke="#030708" stroke-width="0.5" d="M963.261,1472.582c5.388-0.435,10.812-0.066,16.216-0.184
		c42.942,0,85.884,0,128.825,0c8.159,0.102,16.338-0.215,24.487,0.159c0.343,5.756,0.036,11.538,0.138,17.31
		c0,23.178,0,46.351,0,69.525c-0.087,3.364,0.215,6.743-0.169,10.101c-26.384,0.169-52.772,0.021-79.156,0.077
		c-28.117-0.01-56.233,0-84.35-0.005c-1.963-0.02-3.941,0.133-5.879-0.199c-0.424-2.459-0.184-4.954-0.215-7.418
		c0.01-28.459-0.005-56.918,0.01-85.377C963.153,1475.225,963.143,1473.896,963.261,1472.582 M965.53,1474.561
		c-0.245,3.384-0.036,6.789-0.097,10.193c0.061,27.483-0.123,54.976,0.092,82.458c11.456,0.209,22.933,0.026,34.399,0.087
		c31.184,0,62.368,0,93.552,0c12.428-0.071,24.865,0.138,37.283-0.102c0.051-30.872,0.066-61.754-0.005-92.626
		C1075.681,1474.494,1020.603,1474.515,965.53,1474.561z"/>
	<path fill="#A0A0A0" stroke="#A0A0A0" stroke-width="0.5" d="M965.53,1474.561c55.073-0.046,110.151-0.066,165.224,0.01
		c0.072,30.872,0.056,61.754,0.005,92.626c-12.417,0.24-24.855,0.031-37.283,0.102c-31.184,0-62.368,0-93.552,0
		c-11.466-0.061-22.943,0.123-34.399-0.087c-0.215-27.483-0.031-54.976-0.092-82.458
		C965.495,1481.35,965.285,1477.945,965.53,1474.561z"/>
	<path fill="#1E495C" stroke="#1E495C" stroke-width="0.5" d="M2257.183,1107.245c-70.072-38.285-140.133-76.6-210.205-114.885
		c-7.873-4.407-15.914-8.512-23.684-13.092c-4.555-2.203-8.895-4.795-13.358-7.152c-2.306-1.186-4.453-2.679-6.871-3.594
		c-0.838,1.503-1.483,3.098-2.178,4.667c-6.569,14.979-13.174,29.947-19.815,44.89c-52.435,118.826-104.942,237.621-157.407,356.432
		c-3.722,8.481-7.443,16.967-11.477,25.31c-1.084,3.497-2.781,6.758-4.182,10.137c-2.387,5.311-4.683,10.664-7.065,15.98
		c-1.488,3.768-3.487,7.326-4.8,11.155c7.643,4.637,15.531,8.89,23.26,13.399c35.023,20.019,70.057,40.033,105.059,60.088
		c63.012,35.974,125.983,72.02,188.975,108.04c9.186,5.332,18.521,10.434,27.626,15.919h249.466v-454.467
		C2346.037,1155.876,2301.633,1131.517,2257.183,1107.245z"/>
</g>
</svg>
