<?xml version="1.0" encoding="UTF-8"?>
<!DOCTYPE svg PUBLIC "-//W3C//DTD SVG 1.1//EN" "http://www.w3.org/Graphics/SVG/1.1/DTD/svg11.dtd">
<svg version="1.1" xmlns="http://www.w3.org/2000/svg" xmlns:xlink="http://www.w3.org/1999/xlink" x="0" y="0" width="567" height="764.75" viewBox="0, 0, 567, 764.75">
  <g id="Layer_1">
    <path d="M414.136,527.931 L420.982,527.931 L420.982,537.253 L414.136,537.253 z M509.068,134.71 C509.675,134.71 510.314,134.808 510.963,134.949 C510.823,135.322 510.676,135.688 510.557,136.068 L510.223,138.014 C510.162,138.343 510.123,138.675 510.088,139.008 L510.142,140.024 C510.113,142.74 511.376,145.673 513.515,147.6 C515.632,149.574 518.345,150.549 520.94,150.904 C522.639,151.126 524.339,151.098 525.992,150.826 C526.169,158.272 518.558,176.932 508.158,183.871 L508.107,183.871 C506.158,183.871 502.184,182.091 497.107,177.896 C490.249,172.231 485.574,165.732 485.301,162.958 C487.391,154.479 503.046,134.71 509.068,134.71 M525.861,149.499 C524.377,149.123 522.933,148.725 521.568,148.248 C519.386,147.467 517.41,146.431 515.898,145.038 C514.398,143.649 513.294,141.86 512.838,139.652 L512.599,138.84 C512.57,138.556 512.55,138.269 512.505,137.982 L512.258,136.225 C512.235,135.921 512.229,135.606 512.216,135.296 C518.128,137.275 524.857,144.027 525.861,149.499 M493.764,181.944 C497.137,184.73 503.228,189.114 508.17,189.114 C508.646,189.114 509.112,189.074 509.563,188.986 L510.046,188.893 L510.461,188.632 C522.674,180.981 531.904,159.449 531.228,149.98 C530.558,140.583 518.546,129.46 509.068,129.46 C499.301,129.46 482.02,153.172 480.099,162.167 L480.041,162.717 C480.041,168.14 487.153,176.486 493.764,181.944 M487.659,372.913 C481.486,372.664 468.615,362.073 466.553,354.095 C466.022,352.034 467.43,348.208 470.319,343.857 C476.431,334.659 486.136,326.793 490.455,326.118 C491.53,326.002 492.569,326.064 493.575,326.254 C492.55,327.873 491.946,329.828 491.972,331.818 C491.946,335.16 493.237,338.401 495.233,340.977 C497.224,343.57 499.977,345.579 503.078,346.595 C505.701,347.48 508.653,347.496 511.126,346.514 C511.578,347.611 511.896,348.462 512.064,348.924 C511.025,353.414 494.014,371.95 487.659,372.913 M494.991,326.615 C502.871,329.207 508.45,340.209 510.863,345.891 C505.43,345.632 501.037,342.716 498.001,338.839 C496.368,336.711 495.133,334.271 494.688,331.642 C494.396,330.008 494.529,328.314 494.991,326.615 M517.185,347.657 C516.792,346.484 507.434,318.922 489.823,320.906 L489.736,320.917 C482.79,321.935 471.83,332.099 465.946,340.952 C462.025,346.855 460.52,351.719 461.471,355.406 C464.028,365.311 478.772,378.073 487.767,378.168 L487.923,378.17 L488.082,378.152 C495.355,377.351 508.541,363.618 513.88,356.156 C517.38,351.262 517.552,349.244 517.256,347.918 L517.185,347.657 z M472.64,255.54 L472.74,255.372 C476,249.331 486.18,239.001 493.022,237.655 C493.509,237.559 493.932,237.52 494.302,237.52 C495.623,237.52 496.235,238.023 496.471,238.217 L496.849,238.537 C495.773,240.826 495.094,243.327 494.879,245.924 C494.594,249.413 495.201,253.229 497.329,256.401 C499.405,259.616 503.036,261.639 506.569,262.133 C509.134,262.526 511.658,262.327 514.062,261.772 C514.138,262.241 514.18,262.696 514.18,263.133 C514.18,267.073 510.073,273.681 504.417,278.845 C499.035,283.757 493.306,286.468 489.046,286.074 C485.168,285.714 477.964,279.41 473.83,270.944 C470.789,264.719 470.358,259.105 472.64,255.54 M497.767,239.316 C504.164,244.879 512.097,253.99 513.819,260.687 C511.504,260.445 509.275,260.134 507.201,259.476 C504.243,258.556 501.809,256.828 500.232,254.448 C498.638,252.072 497.831,249.081 497.6,245.95 C497.443,243.791 497.543,241.577 497.767,239.316 M488.565,291.301 C488.985,291.34 489.41,291.359 489.846,291.359 C495.36,291.359 501.881,288.267 507.955,282.723 C514.927,276.36 519.43,268.671 519.43,263.133 C519.43,250.425 500.003,234.323 499.803,234.159 C498.375,232.986 495.859,231.747 492.009,232.503 C483.24,234.229 472.068,245.637 468.164,252.794 C464.88,258.006 465.215,265.263 469.11,273.247 C473.141,281.496 481.323,290.628 488.565,291.301 M326.237,532.25 L337.162,532.25 L337.162,537.983 L326.237,537.983 z M338.1,530.63 L325.012,530.63 L331.555,524.085 L338.1,530.63 z M412.65,534.13 L409.971,534.13 L409.971,524.807 L416.817,524.807 L416.817,526.444 L413.394,526.444 C412.984,526.444 412.65,526.778 412.65,527.188 L412.65,534.13 z M489.069,381.838 C485.81,382.643 482.853,383.166 480.995,383.25 C466.52,380.788 455.668,368.924 453.355,358.288 C450.797,346.51 456.41,318.174 476.049,304.896 C499.443,307.974 515.142,292.87 515.811,292.211 C518.661,289.415 532.157,274.489 537.812,268.221 C554.477,286.407 550.12,313.827 545.318,321.689 C538.358,333.081 505.823,372.993 489.069,381.838 M480.426,227.64 C483.543,225.234 487.076,222.507 490.796,219.298 C499.874,211.473 504.466,205.292 504.823,200.428 C508.435,199.134 511.884,197.092 515.133,194.535 C521.497,190.097 527.023,184.791 530.045,181.687 C543.883,194.619 552.68,206.563 552.68,212.562 C552.68,222.269 552.68,233.271 547.255,240.504 C547.036,240.795 546.627,241.363 546.052,242.172 C521.791,276.11 500.967,296.301 488.922,297.57 C481.233,298.385 474.451,296.039 469.299,290.803 C462.056,283.442 458.708,271.033 460.341,257.611 C462.285,241.643 469.112,236.372 480.426,227.64 M477.743,90.174 L477.435,89.437 L475.279,87.521 L474.189,71.811 C492.879,72.979 519.213,82.227 522.025,89.063 C526.836,100.739 538.916,136.971 535.299,150.402 C531.046,166.203 516.029,191.021 500.007,194.561 C491.472,196.445 483.196,193.529 476.684,186.35 C466.862,175.516 463.258,157.957 467.924,143.649 C473.188,127.507 481.462,99.095 477.743,90.174 M420.122,23.73 C420.122,21.919 421.591,20.45 423.402,20.45 C425.211,20.45 426.68,21.919 426.68,23.73 C426.68,25.539 425.211,27.008 423.402,27.008 C421.591,27.008 420.122,25.539 420.122,23.73 M297.993,20.45 L361.116,20.45 L361.116,27.008 L297.993,27.008 z M323.057,532.25 C322.73,532.25 322.434,532.051 322.31,531.75 C322.182,531.447 322.252,531.099 322.485,530.868 L330.983,522.366 C331.287,522.062 331.824,522.062 332.129,522.366 L340.627,530.868 C340.86,531.099 340.926,531.447 340.804,531.75 C340.676,532.051 340.382,532.25 340.055,532.25 L338.783,532.25 L338.783,539.604 L324.618,539.604 L324.618,532.25 L323.057,532.25 z M241.484,524.375 C238.465,524.375 235.895,526.274 234.866,528.936 L233.483,528.37 C234.736,525.163 237.841,522.877 241.484,522.877 C246.232,522.877 250.091,526.74 250.091,531.487 C250.091,536.233 246.232,540.096 241.484,540.096 C241.071,540.096 240.737,539.761 240.737,539.346 C240.737,538.933 241.071,538.599 241.484,538.599 C245.404,538.599 248.598,535.409 248.598,531.487 C248.598,527.565 245.404,524.375 241.484,524.375 M232.913,531.68 C232.921,531.682 233.622,531.93 236.038,529.417 L236.243,529.209 C236.525,528.911 236.997,528.896 237.3,529.177 C237.601,529.461 237.615,529.933 237.333,530.234 C235.445,532.243 234.064,533.192 232.99,533.192 C232.741,533.192 232.51,533.141 232.292,533.041 C231.142,532.516 230.794,530.899 231.131,527.635 C231.173,527.228 231.534,526.92 231.952,526.969 C232.363,527.011 232.661,527.377 232.619,527.789 L232.601,528.01 C232.29,531.33 232.887,531.669 232.913,531.68 M170.385,278.329 C173.019,263.371 177.137,246.617 181.197,230.107 C182.283,225.689 183.374,221.247 184.447,216.806 L184.447,265.384 C179.639,270.069 174.627,274.605 170.385,278.329 M176.269,310.725 C174.344,309.503 172.359,308.334 170.2,307.286 C169.351,306.885 168.478,306.502 167.57,306.138 C167.515,302.428 167.732,298.377 168.159,294.063 C171.099,291.62 177.443,286.262 184.447,279.82 L184.447,316.605 C181.844,314.529 179.135,312.56 176.269,310.725 M168.644,316.375 C169.984,316.776 171.337,317.226 172.69,317.739 C176.538,319.217 180.359,321.038 184.068,323.062 L184.447,323.279 L184.447,361.595 C184.289,361.034 184.137,360.472 183.974,359.912 C180.275,347.139 175.784,334.579 170.625,322.215 L165.93,324.562 L170.625,322.215 C169.773,320.511 169.127,318.546 168.644,316.375 M119.511,114.483 C116.035,116.795 111.584,118.44 108.038,119.577 C107.38,115.911 106.731,112.22 106.099,108.549 C106.276,108.584 106.461,108.616 106.638,108.652 C108.572,109.034 110.442,109.455 112.208,110.028 C113.974,110.604 115.628,111.319 117.114,112.354 C117.973,112.938 118.757,113.655 119.511,114.483 M118.99,110.341 C117.479,108.575 115.406,107.375 113.288,106.699 C111.158,106.015 108.955,105.796 106.811,105.915 C106.428,105.941 106.048,105.989 105.667,106.034 C101.626,82.358 98.388,60.168 98.394,53.543 C101.115,52.834 104.669,52.75 108.605,53.93 C113.916,55.524 121.522,82.154 125.025,105.058 C125.555,108.526 123.664,111.323 120.774,113.568 C120.407,112.408 119.809,111.295 118.99,110.341 M231.613,631.396 C235.436,636.688 240.749,640.95 246.62,643.96 C252.497,647.003 258.869,648.972 265.31,650.244 C267.349,650.643 269.395,650.953 271.449,651.221 C266.275,656.784 258.82,665.733 247.849,680.269 C232.834,700.157 215.225,725.329 200.396,748.094 C200.135,748.094 199.862,748.094 199.602,748.094 C184.354,748.094 170.198,746.552 157.073,743.844 L214.055,643.939 L146.758,741.422 C113.605,732.688 87.582,716.443 67.83,699.153 L121.475,608.951 L60.622,692.547 C36.647,669.536 23.378,646.158 18.84,637.296 C26.971,624.206 53.874,575.652 65.637,554.344 C66.15,554.827 66.666,555.31 67.127,555.756 C67.755,556.362 68.322,556.934 68.78,557.445 C69.034,557.716 69.186,557.914 69.405,558.169 L70.362,559.393 C71.645,561.017 72.975,562.571 74.335,564.074 C79.789,570.076 85.717,575.368 91.913,580.24 C104.331,589.937 117.791,598.075 132.125,604.333 C139.295,607.439 146.699,610.052 154.326,611.872 C161.941,613.68 169.825,614.684 177.702,614.206 C185.538,613.725 193.452,611.541 199.917,607.05 C206.419,602.614 211.111,596.081 214.055,589.059 C210.574,595.845 205.457,601.834 198.966,605.552 C192.503,609.333 184.989,610.776 177.607,610.661 C170.193,610.538 162.836,609.023 155.747,606.748 C148.652,604.462 141.794,601.433 135.189,597.942 C121.996,590.928 109.727,582.129 98.793,572.133 C93.341,567.126 88.235,561.773 83.834,556.096 C82.737,554.677 81.688,553.238 80.712,551.78 L79.985,550.688 C79.632,550.181 79.224,549.603 78.858,549.146 C78.104,548.182 77.373,547.353 76.674,546.581 C75.271,545.032 73.985,543.702 72.901,542.439 C71.892,541.277 71.117,540.153 70.817,539.479 C50.75,485.553 50.017,445.319 49.25,402.794 C48.974,387.426 48.687,371.534 47.5,354.531 C44.996,318.633 57.897,291.645 72.835,260.396 C77.667,250.287 82.665,239.834 87.297,228.671 C89.392,223.618 88.991,217.878 88.604,212.329 C88.534,211.314 88.463,210.29 88.408,209.277 L134.857,217.366 L88.573,202.573 C88.673,201.924 88.797,201.296 88.977,200.725 C90.051,197.316 91.368,193.958 92.787,190.552 L92.68,190.908 L119.49,197.033 L93.998,187.67 C94.488,186.524 94.983,185.378 95.489,184.21 C100.775,172.018 106.239,159.415 106.993,143.154 C109.029,131.96 109.051,125.9 109.051,125.646 L108.974,124.791 C117.551,122.103 132.088,116.491 130.216,104.263 C129.406,98.971 121.963,52.456 110.114,48.902 C107.853,48.225 105.665,47.883 103.591,47.798 C111.129,41.615 121.695,37.758 135.279,44.074 C153.57,52.58 178.201,82.059 184.447,123.153 L184.447,163.758 C181.878,183.353 176.368,205.772 171.001,227.6 C160.926,268.567 151.41,307.263 161.234,326.91 C167.773,338.117 173.771,349.736 179.039,361.704 C180.947,366.037 182.765,370.417 184.447,374.85 L184.447,537.266 C184.447,551.441 195.939,562.933 210.114,562.933 L373.62,562.933 C358.375,613.099 305.947,636.827 284.074,641.718 C278.178,642.45 272.227,642.754 266.313,642.435 C260.327,642.101 254.368,641.133 248.731,639.154 C243.1,637.193 237.832,634.083 233.623,629.711 C229.393,625.362 226.359,619.778 224.555,613.751 C225.503,619.953 227.752,626.12 231.613,631.396 M196.999,507.334 L196.999,40.29 L462.098,40.29 L462.098,138.885 C461.822,139.748 461.557,140.591 461.268,141.477 C457.807,152.098 458.304,164.267 462.098,174.965 L462.098,234.738 C457.735,240.104 454.612,246.753 453.392,256.765 C451.672,270.9 454.916,284.223 462.098,293.19 L462.098,308.049 C447.813,324.503 444.024,348.308 446.516,359.776 C448.464,368.736 454.302,376.873 462.098,382.557 L462.098,414.974 C461.778,415.243 461.484,415.503 461.151,415.776 C446.908,427.481 444.841,440.027 445.615,448.49 C446.758,461.004 454.527,470.719 461.265,474.448 C461.533,474.595 461.822,474.7 462.098,474.829 L462.098,507.334 L196.999,507.334 z M409.227,535.615 C408.818,535.615 408.483,535.283 408.483,534.873 L408.483,524.064 C408.483,523.656 408.818,523.32 409.227,523.32 L417.559,523.32 C417.97,523.32 418.304,523.656 418.304,524.064 L418.304,526.444 L421.725,526.444 C422.135,526.444 422.469,526.778 422.469,527.188 L422.469,537.997 C422.469,538.407 422.135,538.741 421.725,538.741 L413.394,538.741 C412.984,538.741 412.65,538.407 412.65,537.997 L412.65,535.615 L409.227,535.615 z M503.643,452.827 C506.532,448.616 503.395,431.112 500.572,423.955 C498.969,419.893 497.194,417.769 494.98,417.279 C488.612,415.847 466.832,429.046 465.619,433.771 C463.218,443.128 471.079,461.988 474.918,466.464 C475.554,467.204 476.721,468.032 478.665,468.097 C473.06,469.801 468.044,470.201 464.656,468.323 C459.317,465.367 453.457,457.385 452.587,447.855 C451.966,441.075 453.721,430.944 465.595,421.183 C478.497,410.58 484.839,401.051 484.445,392.865 C484.393,391.816 484.236,390.859 484.01,389.991 C487.832,389.527 492.186,388.376 496.05,387.156 C509.913,389.368 514.607,395.749 517.143,401.093 C520.492,408.158 525.264,435.218 515.552,445.678 C511.835,449.68 502.719,456.519 492.935,461.86 C498.015,458.411 502.491,454.505 503.643,452.827 M495.763,425.849 C497.828,431.265 499.599,441.35 499.656,446.729 C498.23,445.606 496.996,444.4 496.006,443.056 C494.622,441.173 493.71,439.052 493.337,436.84 C492.965,434.63 493.096,432.341 493.784,430.106 C494.226,428.655 494.916,427.249 495.763,425.849 M491.283,429.03 C489.914,431.524 489.382,434.56 489.888,437.439 C490.352,440.33 491.887,443 493.995,444.906 C495.616,446.385 497.595,447.386 499.644,447.818 C499.608,448.724 499.499,449.428 499.314,449.857 C496.991,453.241 482.146,463.46 478.765,462.882 C475.601,458.934 469.023,442.398 470.657,435.272 C472.82,432.052 490.108,421.829 493.734,422.385 C494.244,422.733 494.762,423.54 495.271,424.655 C493.651,425.74 492.254,427.233 491.283,429.03 M554.594,248.278 L554.596,248.276 C555.105,247.562 555.466,247.056 555.653,246.804 C563.18,236.77 563.18,223.347 563.18,212.562 C563.18,200.727 549.241,185.15 536.687,173.521 C540.612,166.586 543.823,159.133 545.44,153.132 C550.862,132.995 531.928,85.535 531.736,85.064 C526.299,71.862 495.581,63.633 478.308,61.68 L478.308,32.525 C478.308,16.445 465.224,3.36 449.141,3.36 L210.114,3.36 C194.031,3.36 180.948,16.445 180.948,32.525 L180.948,71.216 C168.516,49.896 152.873,36.816 141.181,31.379 C121.433,22.195 101.635,27.083 86.873,44.795 C84.037,48.2 81.359,51.42 95.029,126.313 C94.95,128.1 94.607,133.096 93.158,140.98 L93.021,142.198 C92.444,156.042 87.462,167.529 82.642,178.649 C80.152,184.389 77.577,190.325 75.626,196.514 C73.857,202.121 74.254,207.807 74.639,213.304 C74.9,217.053 75.198,221.301 74.366,223.303 C69.87,234.138 64.956,244.417 60.203,254.357 C45.068,286.02 30.772,315.926 33.535,355.505 C34.697,372.165 34.979,387.865 35.252,403.046 C36.031,446.131 36.764,486.845 56.677,541.601 L56.004,542.824 L53.449,544.101 L54.36,545.802 C32.947,584.622 8.887,627.578 5.805,631.689 L2.625,635.927 L4.907,640.706 C11.195,653.884 29.874,687.703 67.419,717.108 C105.53,746.958 149.994,762.094 199.575,762.094 C200.844,762.094 202.122,762.083 203.401,762.064 L208.068,761.989 L210.607,758.07 C246.475,702.702 281.258,658.99 287.305,655.272 C293.636,653.798 313.742,648.214 336.35,632.746 C354.305,620.464 377.47,599.084 387.212,566.433 L449.141,566.433 C465.224,566.433 478.308,553.348 478.308,537.266 L478.308,478.947 C496.486,474.759 517.811,458.675 523.247,452.825 C537.945,436.992 529.989,403.678 526.631,396.595 C522.979,388.896 517.052,383.302 508.963,379.906 C529.298,361.798 551.64,331.478 554.278,327.164 C560.639,316.752 566.562,283.637 545.288,260.858 C548.338,256.881 551.462,252.66 554.594,248.278" fill="#0B0B09"/>
    <path d="M345.303,20.45 C345.557,20.45 345.475,20.452 345.184,20.463 L345.303,20.45 L297.992,20.45 L297.992,27.008 L361.116,27.008 L361.116,20.45 L345.303,20.45" fill="#525351"/>
    <path d="M423.4,27.008 C425.211,27.008 426.678,25.539 426.678,23.728 C426.678,21.92 425.211,20.45 423.4,20.45 C421.591,20.45 420.121,21.92 420.121,23.728 C420.121,25.539 421.591,27.008 423.4,27.008" fill="#525351"/>
  </g>
</svg>
